<?xml version="1.0" encoding="utf-8"?>
<!-- Generator: Adobe Illustrator 28.2.0, SVG Export Plug-In . SVG Version: 6.00 Build 0)  -->
<svg version="1.1" id="Layer_1" xmlns="http://www.w3.org/2000/svg" xmlns:xlink="http://www.w3.org/1999/xlink" x="0px" y="0px"
	 viewBox="0 0 1409.2 1410.7" style="enable-background:new 0 0 1409.2 1410.7;" xml:space="preserve">
<style type="text/css">
	.st0{fill-rule:evenodd;clip-rule:evenodd;fill:#DC2626;}
	.st1{fill-rule:evenodd;clip-rule:evenodd;fill:#FFFFFF;}
</style>
<circle class="st0" cx="704.6" cy="704.6" r="704.6"/>
<g>
	<path class="st1" d="M491,966.1l-173.4-84.7c-3.8-1.9-5.8-7-5.7-10.3l0.5-46.8c0.1-3.3,0.7-6.7,5-9.8
		c18.5-11.8,75.9-43.6,135.3-130.2c79-115.3,0-212.2-123.5-185.8C219.5,522,107.9,581.4,59.4,613.7c-43.2,28.8-37.2,63.5-38.4,94.7
		c2.4,13.2,7.2,12,18-1.2c80.3-74.3,202.6-130.7,225.4-140.3c22.8-9.6,76.7-42,140.3-27.6c61,13.8,46.2,96.8,27.6,131.9
		c-20.4,38.4-78.5,94.1-104.9,107.9c-10,5.3-13.8,0-13.8-8.4l4.2-180.4c0-12-5.4-17.4-17.4-13.2l-19.2,9.6
		c-13.2,7.8-12.6,10.8-13.8,20.4l-2.9,208c-0.1,4.5-2.2,8.1-4.6,9.1l-62.6,35.2c-14.4,7.2-10.8,18,0,21.6l50.4,24
		c12,4.8,15.6,8.4,15.6,20.4l-1.8,100.7c44.9-9,47.9-30.6,49.2-44.9v-30.6c1.2-7.2,5.4-9.6,11.4-8.4l146.2,70.9
		c13.2,6,20.4,3.6,30-13.2C507.8,982.9,509,974.5,491,966.1L491,966.1z M746.6,712c-20.3,11.7-29.7,33.7-21.7,47.6
		c8,13.9,32.2,16.2,52.5,4.5c20.4-11.7,29.1-33.1,21.1-46.9C790.5,703.2,766.9,700.3,746.6,712z"/>
	<path class="st1" d="M671.6,726.9c-5.5,6.7-16.2,27.3-22.2,39.9s-18.6,41.1-31.2,41.1c-13.3,0-15-32.9-15-44.9s-7.2-13.8-10.8-13.2
		c-3.6,0.6-13.8,4.2-16.8,16.8c-3,12.6-19.2,67.1-37.2,67.1c-11.4,0-19.8-33-20.4-43.2c-0.6-10.2-5.4-18.6-15.6-18.6
		c-7.2,0-16.2,3.6-19.8,7.8c-3.6,4.2-4.2,10.8-23.4,6.6c-17.4-0.6-34.2,8.4-54.6,42.5c-12.3,20.6-22.2,58.9-3.6,74.3
		c17.4,14.4,47.9-11.4,57-22.2c9-10.8,16.8-18.6,20.4-24.6c3.6-6,7.2-5.4,9,0.6c1.8,6,12,29.4,25.2,28.8c13.2-0.6,30-10.8,49.8-45.6
		c3.6-7.2,9-6.6,10.2-0.6c1.2,6,9,25.8,22.2,25.8c12.6,0,26.6-20,33.6-31.7c4.8-8.1,12-4.2,12,3.6s-3.6,191.8-3.6,191.8
		c0,8.4,3.3,10.8,9.3,10.8H672c4.8,0,9-4.2,9-10.8l5.4-298.2C686.6,723.6,678.5,718.5,671.6,726.9L671.6,726.9z M467.8,844.4
		c-5.4,9-19.8,33-32.4,28.8c-6.6-3.6,2.2-27.6,6.6-36c6.6-12.6,25.9-32.7,34.8-27.6C485.2,814.4,473.2,835.4,467.8,844.4
		L467.8,844.4z M1381.1,660.6c-2.4,2.1-6.3,5.7-15,1.8c-15-6-16.2-34.1-24-59.9c-7-23.2-23.8-21.7-30-11.1l-18.3,29.4
		c-3.3,6-10.5,19.8-17.7,19.8c-8.4,0-4.6-12-4.2-24c0.3-8.1-4.8-18.3-13.2-18.3c-9.6,0-19.8,14.7-27.6,31.5
		c-5.4,11.7-19.5,56.7-37.2,56.7c-11.4,0-12.6-33-13.2-43.2c-0.6-10.2-4.2-22.8-14.4-22.8c-6.9,0-11.4,3.6-15,7.8
		c-3.6,4.2-4.2,7.8-16.8,6c-17.4-0.6-46.1,15.6-66.6,49.8c-12.3,20.6-27,63.7-8.4,79.1c17.4,14.4,48.5-19.2,57.5-30
		c9-10.8,16.8-18.6,20.4-24.6c3.6-6,7.2-5.4,9,0.6s12,29.4,25.2,28.8c13.2-0.6,24-3.6,43.7-38.4c3.6-7.2,10.2-8.1,11.4-2.1
		c1.2,6,2.4,21.9,15,21.9c21.6,0,46-52.5,52.2-64.7c5.4-10.8,14.1-7.8,17.1,0.3c4.3,11.6,8.1,48.8,31.5,48.8
		c23.4,0,39.2-24.9,44-32.7C1392.2,663.3,1389.4,653.3,1381.1,660.6L1381.1,660.6z M1126.9,696.6c-5.4,9-17.4,28.8-30,24.6
		c-6.6-3.6,1.6-21,6-29.4c6.6-12.6,25.9-32.9,34.8-27.8C1146.2,668.7,1132.4,687.5,1126.9,696.6L1126.9,696.6z M1011.1,665.1
		c0,0-51-37.2-65.4-53.9c-9.7-11.3-3-19.8,3-24.6c36-24,92.3-61.1,114.5-118.7c21.4-55.5-12-103.7-36-111.5
		C994.4,345.7,924.8,367.2,890,432c-22.5,41.9-32.9,55.8-36,169.6c-0.6,21.6-1.2,46.1-1.2,73.1c0,27-3,100.1-6,113.9
		c-11.4,32.4,22.8,13.2,38.4,0.6s14.4-31.5,14.4-39.6c0-10.2,0.6-190,6-230.2c3.4-25,7.2-71.3,33.6-111.5
		c26.4-40.1,53.4-24,60.6-17.4c7.2,6.6,17.4,23.4,12,57.5c-8.3,53-69.5,110.9-85.1,128.8c-15.6,18-12,33.6-3,46.1
		c6.4,9,22.2,26.4,38.4,42.5c16.2,16.2,14.4,30.6,12,41.3c-8.4,32.4-95.9,119.9-95.9,119.9c-18.6,19.8,0.6,52.2,7.2,62.9
		c6.6,10.8,15,7.2,20.4-1.8c21.6-40.1,114.5-137.2,114.5-137.2C1047.1,716.7,1035.7,683.7,1011.1,665.1L1011.1,665.1z"/>
</g>
</svg>
